<svg xmlns="http://www.w3.org/2000/svg" width="980" height="540" viewBox="0 0 980 540" role="img" aria-labelledby="title desc">
<title id="title">Native-system lane crosses the golf frontier</title>
<desc id="desc">Competitor sources use cl100k_base; Kern is shown with both tokenizers</desc>
<rect width="100%" height="100%" fill="#0b1020"/>
<text x="92" y="38" fill="#f8fafc" font-family="Inter,system-ui,sans-serif" font-size="24" font-weight="700">Native-system lane crosses the golf frontier</text>
<text x="92" y="65" fill="#94a3b8" font-family="Inter,system-ui,sans-serif" font-size="14">Competitor sources use cl100k_base; Kern is shown with both tokenizers</text>
<line x1="92" y1="448.0" x2="946" y2="448.0" stroke="#25314d" stroke-width="1"/>
<text x="80" y="453.0" fill="#94a3b8" text-anchor="end" font-family="Inter,system-ui,sans-serif" font-size="12">0</text>
<line x1="92" y1="376.8" x2="946" y2="376.8" stroke="#25314d" stroke-width="1"/>
<text x="80" y="381.8" fill="#94a3b8" text-anchor="end" font-family="Inter,system-ui,sans-serif" font-size="12">44</text>
<line x1="92" y1="305.6" x2="946" y2="305.6" stroke="#25314d" stroke-width="1"/>
<text x="80" y="310.6" fill="#94a3b8" text-anchor="end" font-family="Inter,system-ui,sans-serif" font-size="12">88</text>
<line x1="92" y1="234.4" x2="946" y2="234.4" stroke="#25314d" stroke-width="1"/>
<text x="80" y="239.4" fill="#94a3b8" text-anchor="end" font-family="Inter,system-ui,sans-serif" font-size="12">132</text>
<line x1="92" y1="163.2" x2="946" y2="163.2" stroke="#25314d" stroke-width="1"/>
<text x="80" y="168.2" fill="#94a3b8" text-anchor="end" font-family="Inter,system-ui,sans-serif" font-size="12">176</text>
<line x1="92" y1="92.0" x2="946" y2="92.0" stroke="#25314d" stroke-width="1"/>
<text x="80" y="97.0" fill="#94a3b8" text-anchor="end" font-family="Inter,system-ui,sans-serif" font-size="12">220</text>
<text x="22" y="270.0" fill="#94a3b8" text-anchor="middle" transform="rotate(-90 22 270.0)" font-family="Inter,system-ui,sans-serif" font-size="13">Aggregate tokens</text>
<text x="305.5" y="476" fill="#cbd5e1" text-anchor="middle" font-family="Inter,system-ui,sans-serif" font-size="14">Pyth</text>
<rect x="207.5" y="234.4" width="60.0" height="213.6" rx="5" fill="#f97316"/>
<text x="237.5" y="226.4" fill="#f8fafc" text-anchor="middle" font-family="Inter,system-ui,sans-serif" font-size="12" font-weight="600">132.0</text>
<rect x="275.5" y="210.1" width="60.0" height="237.9" rx="5" fill="#06b6d4"/>
<text x="305.5" y="202.1" fill="#f8fafc" text-anchor="middle" font-family="Inter,system-ui,sans-serif" font-size="12" font-weight="600">147.0</text>
<rect x="343.5" y="242.5" width="60.0" height="205.5" rx="5" fill="#22c55e"/>
<text x="373.5" y="234.5" fill="#f8fafc" text-anchor="middle" font-family="Inter,system-ui,sans-serif" font-size="12" font-weight="600">127.0</text>
<text x="732.5" y="476" fill="#cbd5e1" text-anchor="middle" font-family="Inter,system-ui,sans-serif" font-size="14">Jelly</text>
<rect x="634.5" y="240.9" width="60.0" height="207.1" rx="5" fill="#f97316"/>
<text x="664.5" y="232.9" fill="#f8fafc" text-anchor="middle" font-family="Inter,system-ui,sans-serif" font-size="12" font-weight="600">128.0</text>
<rect x="702.5" y="210.1" width="60.0" height="237.9" rx="5" fill="#06b6d4"/>
<text x="732.5" y="202.1" fill="#f8fafc" text-anchor="middle" font-family="Inter,system-ui,sans-serif" font-size="12" font-weight="600">147.0</text>
<rect x="770.5" y="242.5" width="60.0" height="205.5" rx="5" fill="#22c55e"/>
<text x="800.5" y="234.5" fill="#f8fafc" text-anchor="middle" font-family="Inter,system-ui,sans-serif" font-size="12" font-weight="600">127.0</text>
<rect x="92" y="504" width="14" height="14" rx="3" fill="#f97316"/>
<text x="114" y="516" fill="#cbd5e1" font-family="Inter,system-ui,sans-serif" font-size="13">Competitor + cl100k</text>
<rect x="282" y="504" width="14" height="14" rx="3" fill="#06b6d4"/>
<text x="304" y="516" fill="#cbd5e1" font-family="Inter,system-ui,sans-serif" font-size="13">Kern + cl100k</text>
<rect x="472" y="504" width="14" height="14" rx="3" fill="#22c55e"/>
<text x="494" y="516" fill="#cbd5e1" font-family="Inter,system-ui,sans-serif" font-size="13">Kern + Kern-16K</text>
</svg>
